<svg data-v-423bf9ae="" xmlns="http://www.w3.org/2000/svg" viewBox="0 0 651 90" class="iconLeft"><!----><!----><!----><g data-v-423bf9ae="" id="183b23e6-37a6-426a-a708-47245eac77b4" fill="#ffffff" transform="matrix(5.352364397880104,0,0,5.352364397880104,105.28990950072745,0.6021408939492474)"><path d="M2.23 13.80L2.23 13.80Q1.67 13.80 1.27 13.41L1.27 13.41L1.27 13.41Q0.88 13.02 0.88 12.46L0.88 12.46L0.88 4.31L0.88 4.31Q0.88 3.74 1.19 3.43L1.19 3.43L1.19 3.43Q1.50 3.12 2.07 3.12L2.07 3.12L6.94 3.12L6.94 3.12Q7.39 3.12 7.71 3.44L7.71 3.44L7.71 3.44Q8.02 3.75 8.02 4.20L8.02 4.20L8.02 4.20Q8.02 4.65 7.71 4.97L7.71 4.97L7.71 4.97Q7.39 5.29 6.94 5.29L6.94 5.29L3.57 5.29L3.57 7.73L6.30 7.73L6.30 7.73Q6.73 7.73 7.04 8.04L7.04 8.04L7.04 8.04Q7.35 8.34 7.35 8.78L7.35 8.78L7.35 8.78Q7.35 9.21 7.04 9.53L7.04 9.53L7.04 9.53Q6.73 9.84 6.30 9.84L6.30 9.84L3.57 9.84L3.57 12.46L3.57 12.46Q3.57 13.02 3.18 13.41L3.18 13.41L3.18 13.41Q2.79 13.80 2.23 13.80L2.23 13.80ZM9.73 13.80L9.73 13.80Q9.20 13.80 8.81 13.42L8.81 13.42L8.81 13.42Q8.43 13.03 8.43 12.50L8.43 12.50L8.43 7.15L8.43 7.15Q8.43 6.66 8.79 6.31L8.79 6.31L8.79 6.31Q9.14 5.95 9.63 5.95L9.63 5.95L9.63 5.95Q10.14 5.95 10.49 6.31L10.49 6.31L10.49 6.31Q10.85 6.66 10.85 7.15L10.85 7.15L10.85 7.49L10.91 7.49L10.91 7.49Q11.07 7.07 11.33 6.74L11.33 6.74L11.33 6.74Q11.59 6.41 11.84 6.27L11.84 6.27L11.84 6.27Q12.08 6.15 12.39 6.15L12.39 6.15L12.39 6.15Q13.02 6.15 13.31 6.50L13.31 6.50L13.31 6.50Q13.61 6.86 13.61 7.28L13.61 7.28L13.61 7.28Q13.61 7.71 13.31 8.05L13.31 8.05L13.31 8.05Q13.01 8.39 12.52 8.39L12.52 8.39L12.52 8.39Q12.22 8.39 11.92 8.51L11.92 8.51L11.92 8.51Q11.62 8.64 11.41 8.89L11.41 8.89L11.41 8.89Q11.03 9.35 11.03 10.21L11.03 10.21L11.03 12.50L11.03 12.50Q11.03 13.03 10.65 13.42L10.65 13.42L10.65 13.42Q10.26 13.80 9.73 13.80L9.73 13.80ZM17.58 13.90L17.58 13.90Q16.32 13.90 15.43 13.38L15.43 13.38L15.43 13.38Q14.53 12.87 14.07 11.96L14.07 11.96L14.07 11.96Q13.61 11.05 13.61 9.90L13.61 9.90L13.61 9.90Q13.61 8.72 14.08 7.81L14.08 7.81L14.08 7.81Q14.56 6.90 15.47 6.38L15.47 6.38L15.47 6.38Q16.38 5.87 17.64 5.87L17.64 5.87L17.64 5.87Q18.90 5.87 19.81 6.38L19.81 6.38L19.81 6.38Q20.72 6.90 21.18 7.81L21.18 7.81L21.18 7.81Q21.64 8.72 21.64 9.87L21.64 9.87L21.64 9.87Q21.64 11.03 21.16 11.95L21.16 11.95L21.16 11.95Q20.68 12.87 19.76 13.38L19.76 13.38L19.76 13.38Q18.84 13.90 17.58 13.90L17.58 13.90ZM17.63 12.04L17.63 12.04Q18.33 12.04 18.68 11.47L18.68 11.47L18.68 11.47Q19.03 10.89 19.03 9.88L19.03 9.88L19.03 9.88Q19.03 8.88 18.68 8.30L18.68 8.30L18.68 8.30Q18.33 7.73 17.61 7.73L17.61 7.73L17.61 7.73Q16.91 7.73 16.56 8.29L16.56 8.29L16.56 8.29Q16.21 8.86 16.21 9.87L16.21 9.87L16.21 9.87Q16.21 10.89 16.57 11.47L16.57 11.47L16.57 11.47Q16.93 12.04 17.63 12.04L17.63 12.04ZM23.87 13.80L23.87 13.80Q23.34 13.80 22.95 13.42L22.95 13.42L22.95 13.42Q22.57 13.03 22.57 12.50L22.57 12.50L22.57 7.15L22.57 7.15Q22.57 6.66 22.93 6.31L22.93 6.31L22.93 6.31Q23.28 5.95 23.77 5.95L23.77 5.95L23.77 5.95Q24.28 5.95 24.63 6.31L24.63 6.31L24.63 6.31Q24.99 6.66 24.99 7.15L24.99 7.15L24.99 7.35L24.99 7.35Q25.31 6.72 25.93 6.31L25.93 6.31L25.93 6.31Q26.54 5.91 27.45 5.91L27.45 5.91L27.45 5.91Q29.34 5.91 29.92 7.42L29.92 7.42L29.92 7.42Q30.66 5.91 32.42 5.91L32.42 5.91L32.42 5.91Q33.82 5.91 34.47 6.70L34.47 6.70L34.47 6.70Q35.11 7.49 35.11 8.88L35.11 8.88L35.11 12.50L35.11 12.50Q35.11 13.03 34.73 13.42L34.73 13.42L34.73 13.42Q34.34 13.80 33.81 13.80L33.81 13.80L33.81 13.80Q33.28 13.80 32.89 13.42L32.89 13.42L32.89 13.42Q32.51 13.03 32.51 12.50L32.51 12.50L32.51 9.27L32.51 9.27Q32.51 8.48 32.17 8.18L32.17 8.18L32.17 8.18Q31.84 7.88 31.40 7.88L31.40 7.88L31.40 7.88Q30.90 7.88 30.52 8.25L30.52 8.25L30.52 8.25Q30.14 8.62 30.14 9.59L30.14 9.59L30.14 12.50L30.14 12.50Q30.14 13.03 29.76 13.42L29.76 13.42L29.76 13.42Q29.37 13.80 28.84 13.80L28.84 13.80L28.84 13.80Q28.31 13.80 27.92 13.42L27.92 13.42L27.92 13.42Q27.54 13.03 27.54 12.50L27.54 12.50L27.54 9.27L27.54 9.27Q27.54 8.48 27.20 8.18L27.20 8.18L27.20 8.18Q26.87 7.88 26.43 7.88L26.43 7.88L26.43 7.88Q25.93 7.88 25.55 8.25L25.55 8.25L25.55 8.25Q25.17 8.62 25.17 9.59L25.17 9.59L25.17 12.50L25.17 12.50Q25.17 13.03 24.79 13.42L24.79 13.42L24.79 13.42Q24.40 13.80 23.87 13.80L23.87 13.80ZM42.84 13.86L42.84 13.86Q41.50 13.86 40.94 13.20L40.94 13.20L40.94 13.20Q40.38 12.53 40.39 11.13L40.39 11.13L40.40 7.78L40.01 7.78L40.01 7.78Q39.66 7.78 39.41 7.53L39.41 7.53L39.41 7.53Q39.16 7.28 39.16 6.93L39.16 6.93L39.16 6.93Q39.16 6.57 39.41 6.31L39.41 6.31L39.41 6.31Q39.66 6.06 40.01 6.06L40.01 6.06L40.49 6.06L40.54 5.03L40.54 5.03Q40.57 4.56 40.91 4.23L40.91 4.23L40.91 4.23Q41.26 3.91 41.73 3.91L41.73 3.91L41.73 3.91Q42.22 3.91 42.57 4.26L42.57 4.26L42.57 4.26Q42.92 4.61 42.92 5.10L42.92 5.10L42.92 6.06L43.75 6.06L43.75 6.06Q44.10 6.06 44.35 6.31L44.35 6.31L44.35 6.31Q44.60 6.57 44.60 6.92L44.60 6.92L44.60 6.92Q44.60 7.28 44.35 7.53L44.35 7.53L44.35 7.53Q44.10 7.78 43.75 7.78L43.75 7.78L42.98 7.78L42.98 10.91L42.98 10.91Q42.98 11.48 43.22 11.72L43.22 11.72L43.22 11.72Q43.47 11.96 43.97 11.96L43.97 11.96L43.97 11.96Q44.30 12.03 44.52 12.29L44.52 12.29L44.52 12.29Q44.74 12.54 44.74 12.89L44.74 12.89L44.74 12.89Q44.74 13.19 44.58 13.42L44.58 13.42L44.58 13.42Q44.42 13.65 44.17 13.76L44.17 13.76L44.17 13.76Q43.61 13.86 42.84 13.86L42.84 13.86ZM46.91 13.80L46.91 13.80Q46.38 13.80 46.00 13.42L46.00 13.42L46.00 13.42Q45.61 13.03 45.61 12.50L45.61 12.50L45.61 3.99L45.61 3.99Q45.61 3.46 46.00 3.07L46.00 3.07L46.00 3.07Q46.38 2.69 46.91 2.69L46.91 2.69L46.91 2.69Q47.45 2.69 47.83 3.07L47.83 3.07L47.83 3.07Q48.22 3.46 48.22 3.99L48.22 3.99L48.22 7.22L48.22 7.22Q48.51 6.64 49.07 6.26L49.07 6.26L49.07 6.26Q49.63 5.89 50.50 5.89L50.50 5.89L50.50 5.89Q51.90 5.89 52.54 6.68L52.54 6.68L52.54 6.68Q53.19 7.48 53.19 8.86L53.19 8.86L53.19 12.50L53.19 12.50Q53.19 13.03 52.80 13.42L52.80 13.42L52.80 13.42Q52.42 13.80 51.88 13.80L51.88 13.80L51.88 13.80Q51.35 13.80 50.97 13.42L50.97 13.42L50.97 13.42Q50.58 13.03 50.58 12.50L50.58 12.50L50.58 9.27L50.58 9.27Q50.58 8.48 50.25 8.18L50.25 8.18L50.25 8.18Q49.91 7.87 49.48 7.87L49.48 7.87L49.48 7.87Q48.96 7.87 48.59 8.24L48.59 8.24L48.59 8.24Q48.22 8.61 48.22 9.59L48.22 9.59L48.22 12.50L48.22 12.50Q48.22 13.03 47.83 13.42L47.83 13.42L47.83 13.42Q47.45 13.80 46.91 13.80L46.91 13.80ZM58.00 13.90L58.00 13.90Q56.85 13.90 55.94 13.41L55.94 13.41L55.94 13.41Q55.03 12.92 54.52 12.01L54.52 12.01L54.52 12.01Q54.00 11.10 54.00 9.90L54.00 9.90L54.00 9.90Q54.00 8.74 54.48 7.82L54.48 7.82L54.48 7.82Q54.96 6.90 55.86 6.38L55.86 6.38L55.86 6.38Q56.76 5.87 57.95 5.87L57.95 5.87L57.95 5.87Q59.15 5.87 60.02 6.38L60.02 6.38L60.02 6.38Q60.89 6.89 61.33 7.71L61.33 7.71L61.33 7.71Q61.77 8.54 61.77 9.44L61.77 9.44L61.77 9.44Q61.77 10.01 61.50 10.29L61.50 10.29L61.50 10.29Q61.24 10.57 60.62 10.57L60.62 10.57L56.49 10.57L56.49 10.57Q56.56 11.26 56.98 11.66L56.98 11.66L56.98 11.66Q57.40 12.07 58.06 12.07L58.06 12.07L58.06 12.07Q58.45 12.07 58.72 11.94L58.72 11.94L58.72 11.94Q58.98 11.80 59.19 11.59L59.19 11.59L59.19 11.59Q59.39 11.41 59.55 11.32L59.55 11.32L59.55 11.32Q59.71 11.23 59.95 11.23L59.95 11.23L59.95 11.23Q60.38 11.23 60.69 11.54L60.69 11.54L60.69 11.54Q61.00 11.86 61.00 12.31L61.00 12.31L61.00 12.31Q61.00 12.80 60.58 13.15L60.58 13.15L60.58 13.15Q60.20 13.47 59.50 13.69L59.50 13.69L59.50 13.69Q58.80 13.90 58.00 13.90L58.00 13.90ZM56.50 9.04L59.26 9.04L59.26 9.04Q59.23 8.37 58.86 7.98L58.86 7.98L58.86 7.98Q58.49 7.59 57.90 7.59L57.90 7.59L57.90 7.59Q57.32 7.59 56.94 7.98L56.94 7.98L56.94 7.98Q56.57 8.37 56.50 9.04L56.50 9.04ZM67.62 13.80L67.62 13.80Q67.06 13.80 66.67 13.41L66.67 13.41L66.67 13.41Q66.28 13.02 66.28 12.46L66.28 12.46L66.28 4.35L66.28 4.35Q66.28 3.79 66.67 3.40L66.67 3.40L66.67 3.40Q67.06 3.01 67.62 3.01L67.62 3.01L67.62 3.01Q68.18 3.01 68.57 3.40L68.57 3.40L68.57 3.40Q68.96 3.79 68.96 4.35L68.96 4.35L68.96 7.20L72.83 7.20L72.83 4.35L72.83 4.35Q72.83 3.79 73.22 3.40L73.22 3.40L73.22 3.40Q73.61 3.01 74.17 3.01L74.17 3.01L74.17 3.01Q74.73 3.01 75.12 3.40L75.12 3.40L75.12 3.40Q75.52 3.79 75.52 4.35L75.52 4.35L75.52 12.46L75.52 12.46Q75.52 13.02 75.12 13.41L75.12 13.41L75.12 13.41Q74.73 13.80 74.17 13.80L74.17 13.80L74.17 13.80Q73.61 13.80 73.22 13.41L73.22 13.41L73.22 13.41Q72.83 13.02 72.83 12.46L72.83 12.46L72.83 9.38L68.96 9.38L68.96 12.46L68.96 12.46Q68.96 13.02 68.57 13.41L68.57 13.41L68.57 13.41Q68.18 13.80 67.62 13.80L67.62 13.80ZM80.63 13.90L80.63 13.90Q79.37 13.90 78.47 13.38L78.47 13.38L78.47 13.38Q77.57 12.87 77.11 11.96L77.11 11.96L77.11 11.96Q76.65 11.05 76.65 9.90L76.65 9.90L76.65 9.90Q76.65 8.72 77.13 7.81L77.13 7.81L77.13 7.81Q77.60 6.90 78.51 6.38L78.51 6.38L78.51 6.38Q79.42 5.87 80.68 5.87L80.68 5.87L80.68 5.87Q81.94 5.87 82.85 6.38L82.85 6.38L82.85 6.38Q83.76 6.90 84.22 7.81L84.22 7.81L84.22 7.81Q84.69 8.72 84.69 9.87L84.69 9.87L84.69 9.87Q84.69 11.03 84.20 11.95L84.20 11.95L84.20 11.95Q83.72 12.87 82.80 13.38L82.80 13.38L82.80 13.38Q81.89 13.90 80.63 13.90L80.63 13.90ZM80.67 12.04L80.67 12.04Q81.37 12.04 81.72 11.47L81.72 11.47L81.72 11.47Q82.07 10.89 82.07 9.88L82.07 9.88L82.07 9.88Q82.07 8.88 81.72 8.30L81.72 8.30L81.72 8.30Q81.37 7.73 80.65 7.73L80.65 7.73L80.65 7.73Q79.95 7.73 79.60 8.29L79.60 8.29L79.60 8.29Q79.25 8.86 79.25 9.87L79.25 9.87L79.25 9.87Q79.25 10.89 79.61 11.47L79.61 11.47L79.61 11.47Q79.97 12.04 80.67 12.04L80.67 12.04ZM89.19 13.90L89.19 13.90Q87.93 13.90 87.04 13.38L87.04 13.38L87.04 13.38Q86.14 12.87 85.68 11.96L85.68 11.96L85.68 11.96Q85.22 11.05 85.22 9.90L85.22 9.90L85.22 9.90Q85.22 8.72 85.69 7.81L85.69 7.81L85.69 7.81Q86.17 6.90 87.08 6.38L87.08 6.38L87.08 6.38Q87.99 5.87 89.25 5.87L89.25 5.87L89.25 5.87Q90.51 5.87 91.42 6.38L91.42 6.38L91.42 6.38Q92.33 6.90 92.79 7.81L92.79 7.81L92.79 7.81Q93.25 8.72 93.25 9.87L93.25 9.87L93.25 9.87Q93.25 11.03 92.77 11.95L92.77 11.95L92.77 11.95Q92.29 12.87 91.37 13.38L91.37 13.38L91.37 13.38Q90.45 13.90 89.19 13.90L89.19 13.90ZM89.24 12.04L89.24 12.04Q89.94 12.04 90.29 11.47L90.29 11.47L90.29 11.47Q90.64 10.89 90.64 9.88L90.64 9.88L90.64 9.88Q90.64 8.88 90.29 8.30L90.29 8.30L90.29 8.30Q89.94 7.73 89.22 7.73L89.22 7.73L89.22 7.73Q88.52 7.73 88.17 8.29L88.17 8.29L88.17 8.29Q87.82 8.86 87.82 9.87L87.82 9.87L87.82 9.87Q87.82 10.89 88.18 11.47L88.18 11.47L88.18 11.47Q88.54 12.04 89.24 12.04L89.24 12.04ZM97.10 13.86L97.10 13.86Q96.18 13.86 95.43 13.36L95.43 13.36L95.43 13.36Q94.68 12.87 94.25 11.93L94.25 11.93L94.25 11.93Q93.81 10.99 93.81 9.73L93.81 9.73L93.81 9.73Q93.81 8.65 94.16 7.79L94.16 7.79L94.16 7.79Q94.51 6.93 95.22 6.42L95.22 6.42L95.22 6.42Q95.93 5.91 96.96 5.91L96.96 5.91L96.96 5.91Q98.49 5.91 99.18 7.15L99.18 7.15L99.18 3.99L99.18 3.99Q99.18 3.46 99.56 3.07L99.56 3.07L99.56 3.07Q99.95 2.69 100.48 2.69L100.48 2.69L100.48 2.69Q101.01 2.69 101.39 3.07L101.39 3.07L101.39 3.07Q101.78 3.46 101.78 3.99L101.78 3.99L101.78 12.61L101.78 12.61Q101.78 13.10 101.43 13.45L101.43 13.45L101.43 13.45Q101.08 13.80 100.59 13.80L100.59 13.80L100.59 13.80Q100.16 13.80 99.81 13.54L99.81 13.54L99.81 13.54Q99.47 13.27 99.39 12.87L99.39 12.87L99.39 12.87Q99.04 13.29 98.52 13.57L98.52 13.57L98.52 13.57Q98.01 13.86 97.10 13.86L97.10 13.86ZM97.85 12.11L97.85 12.11Q98.48 12.11 98.86 11.58L98.86 11.58L98.86 11.58Q99.25 11.05 99.25 9.87L99.25 9.87L99.25 9.87Q99.25 8.79 98.86 8.26L98.86 8.26L98.86 8.26Q98.48 7.73 97.82 7.73L97.82 7.73L97.82 7.73Q97.22 7.73 96.82 8.25L96.82 8.25L96.82 8.25Q96.43 8.76 96.43 9.87L96.43 9.87L96.43 9.87Q96.43 10.99 96.83 11.55L96.83 11.55L96.83 11.55Q97.23 12.11 97.85 12.11L97.85 12.11Z"></path></g><!----><g data-v-423bf9ae="" id="7b243ee2-9da4-4530-bdf7-ef273a7ba01c" transform="matrix(2.8125,0,0,2.8125,0,0)" stroke="none" fill="#FF0505"><path d="M0 16l16 16 16-16L16 0 0 16zm16 13.172L2.828 16 16 2.828 29.172 16 16 29.172z"></path><path d="M14.751 9.991v4.76h-2.262v-4.76H9.991v12.018h2.498v-4.76h2.262v4.76h2.498v-4.76h2.262v4.76h2.498V9.991h-2.498v4.76h-2.262v-4.76z"></path></g><!----></svg>